# xmcd CD database file
#
# Track frame offsets:
#	150
#	14787
#	33750
#	45655
#	62517
#	82777
#	98077
#	108457
#	125922
#	142430
#	160282
#	171920
#	189350
#	207837
#	234837
#	249155
#
# Disc length: 3543 seconds
#
# Revision: 0
# Processed by: cddbd v1.5PL3 Copyright (c) Steve Scherf et al.
# Submitted via: CDex 1.50beta10
#
DISCID=d40dd510
DTITLE=Floyd McDaniel and Erwin Helfer - A Hundred Years From Today
DYEAR=1995
DGENRE=Blues
TTITLE0=The Shiek Of Araby
TTITLE1=Beale Street Baby Blues
TTITLE2=The Fives
TTITLE3=Sweet Substitute
TTITLE4=I Can't Get Started
TTITLE5=Tea For Two
TTITLE6=Baby, You Don't Have To Go
TTITLE7=Mother's Eyes
TTITLE8=Do You Know What It Mewans To Miss New Orleans
TTITLE9=Poock Piddle
TTITLE10=The Viper Song
TTITLE11=Sweet Lorraine
TTITLE12=Floyd's Blues
TTITLE13=Sentimental Reason
TTITLE14=Take The A Train
TTITLE15=A Hundred Years From Today
EXTD=YEAR: 1995
EXTT0=
EXTT1=
EXTT2=
EXTT3=
EXTT4=
EXTT5=
EXTT6=
EXTT7=
EXTT8=
EXTT9=
EXTT10=
EXTT11=
EXTT12=
EXTT13=
EXTT14=
EXTT15=
PLAYORDER=
